<svg id="Layer_2" data-name="Layer 2" xmlns="http://www.w3.org/2000/svg" viewBox="0 0 4000 4000">
<style>
    path {
      fill: #629464;
    }
    @media (prefers-color-scheme: dark) {
      path {
        fill: #93d996;
      }
    }
</style>
  <path d="M3959.36,1596.62a1990.84,1990.84,0,0,0-301.18-715.81,2005.62,2005.62,0,0,0-879.91-724.49A1992.87,1992.87,0,0,0,2402.38,39.64a2017.27,2017.27,0,0,0-805.76,0A1990.84,1990.84,0,0,0,880.81,340.82a2005.62,2005.62,0,0,0-724.49,879.91A1992.87,1992.87,0,0,0,39.64,1596.62a2017.27,2017.27,0,0,0,0,805.76,1990.84,1990.84,0,0,0,301.18,715.81,2005.62,2005.62,0,0,0,879.91,724.49,1992.87,1992.87,0,0,0,375.89,116.68,2017.27,2017.27,0,0,0,805.76,0,1990.84,1990.84,0,0,0,715.81-301.18,2005.62,2005.62,0,0,0,724.49-879.91,1992.87,1992.87,0,0,0,116.68-375.89,2017.27,2017.27,0,0,0,0-805.76ZM3192.21,2815.67l-809.56-809.56a65,65,0,0,0-91.93,0l-307.2,307.19a65,65,0,0,0,0,91.93l805.07,805.07a2.49,2.49,0,0,1-.4,3.84c-227.09,148-498,234-788.69,234-778.29,0-1415.2-616.93-1447.38-1387.45C516.78,1214.79,1214.8,516.78,2060.71,552.12c770.52,32.18,1387.45,669.09,1387.45,1447.38,0,302.33-93.11,583.32-252.14,815.82A2.49,2.49,0,0,1,3192.21,2815.67Z"/>
</svg>
