<svg id="Layer_1" data-name="Layer 1" xmlns="http://www.w3.org/2000/svg" xmlns:xlink="http://www.w3.org/1999/xlink" viewBox="0 0 4000 4000"><defs><style>.cls-1{fill:url(#linear-gradient);}</style><linearGradient id="linear-gradient" x1="266.73" y1="2999.92" x2="3732.27" y2="999.08" gradientUnits="userSpaceOnUse"><stop offset="0" stop-color="#004529"/><stop offset="1" stop-color="#007a20"/></linearGradient></defs><path class="cls-1" d="M1999.5-1C894.65-1-1,894.65-1,1999.5S894.65,4000,1999.5,4000,4000,3104.35,4000,1999.5,3104.35-1,1999.5-1Zm1086,2740.8-434-434c-95.47-95.47-250.26-95.47-345.73,0h0c-95.47,95.47-95.47,250.26,0,345.73l434.09,434.09c76.28,76.27,57.1,204.9-38.43,255-211.94,111.14-453.48,173.5-709.72,172.12-841.31-4.55-1515.13-691.65-1503.92-1532.9C498.71,1161.47,1161.22,499,1979.58,488.07c841.17-11.21,1528.23,662.49,1532.89,1503.72,1.41,256.16-60.87,497.65-171.93,709.55C3290.47,2796.89,3161.81,2816.09,3085.53,2739.8Z"/></svg>