<svg id="Layer_1" data-name="Layer 1" xmlns="http://www.w3.org/2000/svg" xmlns:xlink="http://www.w3.org/1999/xlink" viewBox="0 0 4000 4000"><defs><style>.cls-1{fill:url(#linear-gradient);}.cls-2{fill:#fff;}</style><linearGradient id="linear-gradient" x1="-366.03" y1="3366.03" x2="4366.03" y2="633.97" gradientUnits="userSpaceOnUse"><stop offset="0" stop-color="#004529"/><stop offset="1" stop-color="#007a20"/></linearGradient></defs><rect class="cls-1" width="4000" height="4000"/><path class="cls-2" d="M1999.5,592C1222.16,592,592,1222.16,592,1999.5S1222.16,3407,1999.5,3407,3407,2776.84,3407,1999.5,2776.84,592,1999.5,592Zm764.1,1928.36L2458.24,2215a172,172,0,0,0-243.24,0h0a172,172,0,0,0,0,243.24l305.42,305.42c53.66,53.66,40.16,144.16-27,179.41-149.12,78.2-319.06,122.07-499.35,121.1C1402.11,3061,928,2577.54,935.91,1985.66,943.59,1409.88,1409.7,943.77,1985.48,936.1c591.83-7.89,1075.23,466.11,1078.5,1058,1,180.23-42.82,350.13-121,499.22C2907.79,2560.52,2817.27,2574,2763.6,2520.36Z"/></svg>