<svg xmlns="http://www.w3.org/2000/svg" viewBox="0 0 512 512">
  <style>
    path {
      fill: #629464;
    }
    @media (prefers-color-scheme: dark) {
      path {
        fill: #93d996;
      }
    }
  </style>
  <path d="M256,0C114.62,0,0,114.62,0,256S114.62,512,256,512,512,397.38,512,256,397.38,0,256,0ZM395,350.74,339.44,295.2a31.28,31.28,0,0,0-44.24,0h0a31.28,31.28,0,0,0,0,44.24L350.75,395a20.49,20.49,0,0,1-4.92,32.63A193.61,193.61,0,0,1,62.55,253.48C64,148.76,148.73,64,253.45,62.59A193.6,193.6,0,0,1,427.61,345.81,20.49,20.49,0,0,1,395,350.74Z"/>
</svg>
